<?xml version="1.0" encoding="UTF-8" standalone="no"?>
<svg xmlns:rdf="http://www.w3.org/1999/02/22-rdf-syntax-ns#" xmlns="http://www.w3.org/2000/svg" height="750" width="750" version="1.1" xmlns:cc="http://creativecommons.org/ns#" xmlns:dc="http://purl.org/dc/elements/1.1/" viewBox="0 0 750.00001 750.00001">
 <g transform="translate(0 -302.36)">
  <g fill="#ffcdd2" transform="matrix(1.8591 0 0 1.8591 -239.84 -99.836)">
   <path d="m243.86 604.28c-1.32-0.008-3.075-0.0572-3.9-0.10869-0.825-0.0515-2.781-0.23472-4.3467-0.40722-1.5657-0.17247-4.1798-0.58986-5.8092-0.92751-1.6294-0.33762-4.3984-1.086-6.1533-1.663l-3.1908-1.0492-3.3-1.5939-3.3-1.5939-2.85-1.868c-1.5675-1.0274-4.1325-2.8916-5.7-4.1426l-2.85-2.2747-3.9-3.9274c-2.145-2.1601-4.4573-4.5965-5.1385-5.4142l-1.2385-1.4867 3.4885-0.0138 3.4885-0.0138 2.2394-0.68952c1.2317-0.37923 2.9876-1.0672 3.902-1.5288 0.91441-0.46158 2.5084-1.4751 3.5423-2.2522l1.8797-1.413 1.6415-2.098 1.6415-2.098 0.91521-1.9176 0.91521-1.9177 0.62104-2.4559 0.62103-2.4559-0.15001-3.623-0.15002-3.6231-0.49782-1.8-0.49782-1.8-1.1842-2.4523-1.1842-2.4523-1.7759-2.2348-1.776-2.2348-2.1781-1.7043-2.1782-1.7043-2.4233-1.1721-2.4233-1.1721-2.7-0.64491-2.7-0.64491-3.6 0.14226-3.6 0.14226-2.4 0.81081c-1.32 0.44592-3.0075 1.1603-3.75 1.5875s-2.187 1.4372-3.21 2.2443l-1.86 1.4676-1.3975 1.8591c-0.76862 1.0225-1.7752 2.6072-2.2368 3.5216s-1.1495 2.6703-1.5288 3.902l-0.68951 2.2394-0.0137 3.4885-0.0137 3.4885-1.4867-1.2385c-0.81767-0.68118-3.254-2.9935-5.4142-5.1385l-3.9275-3.9-2.2746-2.85c-1.251-1.5675-3.1152-4.1325-4.1426-5.7l-1.868-2.85-1.5945-3.3-1.5945-3.3-1.0435-3.15-1.0435-3.15-0.61532-3c-0.33843-1.65-0.75223-4.1475-0.91956-5.55s-0.36967-4.44-0.44966-6.75l-0.14543-4.2 0.40553 5.4 0.40553 5.4 0.51151 2.9879c0.28133 1.6433 0.89726 4.3617 1.3687 6.0407 0.47148 1.6791 1.2768 4.1145 1.7895 5.4121 0.51276 1.2976 1.5957 3.6241 2.4066 5.1699 0.81085 1.5459 2.2092 3.9084 3.1075 5.25 0.89828 1.3416 2.5438 3.5868 3.6567 4.9893l2.0235 2.55 5.1222 5.0598 5.1222 5.0598 0.18362-3.1098 0.18362-3.1098 0.49291-1.95 0.49291-1.95 1.1789-2.4 1.1789-2.4 1.3583-1.5863c0.74706-0.87246 2.059-2.1844 2.9154-2.9154l1.5571-1.3292 2.3163-1.2051 2.3163-1.2051 2.5128-0.6024 2.5128-0.6024 2.9376-0.003 2.9376-0.003 2.3102 0.47718 2.3102 0.47721 1.7734 0.72057c0.97536 0.39633 2.7534 1.3315 3.9513 2.078l2.1779 1.3574 2.1206 2.1206 2.1206 2.1206 1.3574 2.1779c0.74659 1.1979 1.6817 2.976 2.078 3.9513l0.72059 1.7734 0.47719 2.3102 0.4772 2.3102v2.843 2.843l-0.44972 2.1946-0.44972 2.1946-1.3298 2.7-1.3298 2.7-1.3592 1.5863c-0.74755 0.87246-2.073 2.1975-2.9455 2.9446l-1.5863 1.3583-2.4 1.1789-2.4 1.1789-1.95 0.4929-1.95 0.4929-3.1098 0.18363-3.1098 0.18363 5.0598 5.1222 5.0598 5.1222 2.55 2.0235c1.4025 1.1129 3.6477 2.7585 4.9893 3.6568 1.3416 0.89826 3.7041 2.2966 5.25 3.1075 1.5459 0.81087 3.8723 1.8938 5.1699 2.4066 1.2976 0.51276 3.733 1.318 5.4121 1.7895 1.6791 0.47148 4.3974 1.0874 6.0408 1.3688l2.9879 0.5115 5.4 0.38181 5.4 0.38181-2.4-0.015zm4.8-0.25518-2.1-0.0372 3.133-0.23997c1.7231-0.13197 4.0856-0.39354 5.25-0.58122s3.467-0.67434 5.117-1.0814c1.65-0.4071 4.215-1.1557 5.7-1.6635 1.485-0.50781 4.062-1.5189 5.7267-2.2468 1.6647-0.72798 4.4997-2.1424 6.3-3.1432s4.4208-2.5638 5.8233-3.4733c1.4025-0.90948 3.7312-2.5292 5.175-3.5995l2.625-1.9459v-0.28179c0-0.15498-0.25456-0.78264-0.56569-1.3948-0.31113-0.61218-1.7969-4.1939-3.3017-7.9595-1.5048-3.7655-4.0031-10.381-5.5517-14.7-1.5486-4.3195-4.1041-11.769-5.6788-16.554-1.5748-4.785-3.9493-12.314-5.2766-16.731-1.3274-4.4169-3.368-11.504-4.5346-15.75-1.1667-4.2456-3.1189-11.769-4.3383-16.719s-2.8229-11.768-3.5634-15.15c-0.74049-3.3825-1.9573-9.255-2.704-13.05-0.74671-3.795-1.7675-9.2625-2.2685-12.15-0.50095-2.8875-1.3128-7.95-1.8041-11.25-0.49132-3.3-1.3026-9.2936-1.8029-13.319-0.50027-4.0256-0.90959-7.7718-0.90959-8.325v-1.0058h-0.29768c-0.16372 0-2.02 1.2359-4.125 2.7465s-5.7173 4.1681-8.0273 5.9055-5.8875 4.5111-7.95 6.1637-5.37 4.3563-7.35 6.0082-5.625 4.7791-8.1 6.9494-6.4575 5.7402-8.85 7.9331-8.4 7.8572-13.35 12.587c-4.95 4.73-9.6075 9.1473-10.35 9.8162-0.7425 0.66884-1.8751 1.5702-2.5169 2.0031l-1.1669 0.78703h-0.59891-0.59892l0.18807-1.3721 0.18807-1.3721 1.3648-2.6426c0.75066-1.4534 2.373-4.1514 3.6051-5.9956 1.2322-1.8441 3.2726-4.7161 4.5343-6.3821s3.653-4.6618 5.3139-6.6574c1.661-1.9955 4.64-5.4507 6.62-7.6782s6.979-7.4324 11.109-11.566c4.1297-4.134 9.6686-9.4784 12.309-11.876 2.64-2.3979 6.8925-6.1551 9.45-8.3492s7.4175-6.2142 10.8-8.9336l6.15-4.9443 0.17322-1.8401 0.17322-1.8401 0.0448 1.95 0.0448 1.95-5.168 4.1002c-2.8424 2.2551-7.193 5.812-9.668 7.9042s-6.8625 5.9125-9.75 8.4896l-5.25 4.6855-8.4223 8.4103-8.4223 8.4103-3.5863 4.05c-1.9725 2.2275-4.9339 5.67-6.581 7.65s-4.1722 5.1766-5.6113 7.1035c-1.4392 1.9269-3.5067 4.8751-4.5946 6.5516-1.0879 1.6764-2.5752 4.2751-3.3051 5.7747l-1.3271 2.7267v0.69678 0.69677h0.38294 0.38294l2.0729-1.6519c1.1401-0.90853 6.064-5.4748 10.942-10.147 4.878-4.6725 10.83-10.308 13.226-12.523 2.3961-2.2152 6.5136-5.9236 9.15-8.2409s6.4134-5.5691 8.3934-7.2262 5.4225-4.4736 7.65-6.2589 6.615-5.1604 9.75-7.5002 6.823-5.0364 8.1956-5.9923l2.4956-1.738 0.23343 0.2644 0.23343 0.26441 0.36372 3.75c0.20005 2.0625 0.82358 7.1925 1.3856 11.4 0.56205 4.2075 1.6426 11.362 2.4012 15.9 0.75861 4.5375 2.0513 11.625 2.8727 15.75 0.82136 4.125 2.2347 10.808 3.1407 14.85 0.90603 4.0425 2.7812 11.805 4.1671 17.25s3.5999 13.68 4.9201 18.3 3.3636 11.505 4.5408 15.3c1.1773 3.795 3.2236 10.14 4.5472 14.1 1.3237 3.96 3.6297 10.575 5.1245 14.7s3.8315 10.268 5.1928 13.65c1.3613 3.3825 2.8209 6.9182 3.2436 7.8572l0.76856 1.7072-2.2578 1.6993c-1.2418 0.93462-3.5653 2.5737-5.1633 3.6425s-4.2555 2.7028-5.9055 3.6312c-1.65 0.92841-4.5525 2.3816-6.45 3.2293-1.8975 0.84768-4.935 2.0316-6.75 2.6309-1.815 0.59934-4.4633 1.3634-5.8851 1.6978-1.4218 0.33444-3.9868 0.80733-5.7 1.0508l-3.1149 0.44274-2.1-0.0372zm167.85-1.8725h-4.65l2.325-0.10224c1.2788-0.0562 3.3712-0.0562 4.65 0l2.325 0.10224h-4.65zm-6.45-0.24918-1.8 0.0117-2.6166-0.4074c-1.4391-0.22407-4.0006-0.75729-5.6923-1.1849-1.6916-0.42762-4.2941-1.1979-5.7834-1.7117-1.4893-0.51381-4.2626-1.6306-6.163-2.4816-1.9004-0.85107-4.9379-2.3998-6.75-3.4418-1.8121-1.0419-4.7122-2.8543-6.4447-4.0276s-4.77-3.4335-6.75-5.0226c-1.98-1.5892-5.2008-4.3767-7.1573-6.1945s-5.0448-4.9059-6.8627-6.8624c-1.818-1.9565-4.3806-4.8398-5.6947-6.4073s-3.7723-4.6725-5.4627-6.9-4.2228-5.7375-5.6275-7.8-3.3976-5.1338-4.4287-6.825-1.9628-3.0673-2.0705-3.0579c-0.10773 0.009-1.3882 2.0348-2.8455 4.5008l-2.6496 4.4837-3.4232 4.8973c-1.8828 2.6936-4.9273 6.7769-6.7655 9.0742-1.8382 2.2972-4.861 5.8643-6.7173 7.9268s-3.6477 3.9953-3.9809 4.2952l-0.60581 0.54519-1.7973-4.5952c-0.9885-2.5274-3.0386-7.9702-4.5558-12.095-1.5172-4.125-4.0359-11.28-5.5971-15.9s-3.8539-11.64-5.0949-15.6-3.1994-10.508-4.3521-14.55c-1.1527-4.0425-2.8978-10.503-3.8781-14.356-0.98021-3.8532-2.5178-10.333-3.4168-14.4-0.89901-4.0668-1.7093-7.9342-1.8008-8.5942-0.0914-0.66-0.10359-1.065-0.0271-0.9 0.0765 0.165 0.89543 3.7425 1.8198 7.95 0.92439 4.2075 2.536 11.025 3.5813 15.15 1.0454 4.125 2.8046 10.672 3.9094 14.55 1.1048 3.8775 2.9495 10.088 4.0992 13.8 1.1497 3.7125 3.2455 10.192 4.6572 14.4 1.4118 4.2075 4.0183 11.632 5.7923 16.5 1.774 4.8675 4.0191 10.919 4.989 13.448l1.7635 4.5981 2.2256-2.3481c1.2241-1.2915 3.7126-4.1031 5.5301-6.2481s4.7145-5.7865 6.4378-8.0923c1.7234-2.3057 4.0886-5.6132 5.2561-7.35s3.2274-4.9802 4.5775-7.2077l2.4548-4.05 0.44163-0.0888 0.44166-0.0888 1.2531 2.1093c0.68922 1.1602 2.5766 4.1026 4.1942 6.5388s4.1541 6.0495 5.6368 8.0295 3.8108 4.95 5.1736 6.6 4.1612 4.8445 6.2187 7.099c2.0575 2.2544 5.1848 5.4332 6.9497 7.064 1.7648 1.6308 4.1565 3.7728 5.3149 4.7601 1.1584 0.98727 3.1834 2.614 4.5 3.615s3.8619 2.8022 5.6561 4.0028c1.7942 1.2005 4.9565 3.1062 7.0274 4.2349l3.7652 2.0521 3.6226 1.4877c1.9924 0.81825 5.0171 1.9012 6.7215 2.4067 1.7044 0.50544 4.5631 1.1991 6.3526 1.5415 1.7896 0.34239 4.3775 0.73101 5.7511 0.86361l2.4974 0.24111-1.8 0.0117zm13.949-0.12336c-1.402 0.0669-2.0766 0.0682-1.4991 0.003 0.5775-0.0653 2.4675-0.32691 4.2-0.58125l3.15-0.46248 3.382-0.88881c1.8601-0.48882 4.3898-1.2891 5.6215-1.7784 1.2317-0.48927 3.5695-1.557 5.1951-2.3728l2.9556-1.4832 3.1229-2.0899 3.1229-2.0899 3.3-2.8251 3.3-2.8252 3.8216-4.0312 3.8216-4.0312-3.5216-0.19515-3.5216-0.19515-2.4063-0.77121-2.4063-0.77121-1.8713-1.1336c-1.0293-0.62349-2.561-1.7285-3.4039-2.4556l-1.5325-1.322-1.3468-1.828c-0.74076-1.0054-1.6566-2.4385-2.0351-3.1845-0.37857-0.74607-0.97701-2.2311-1.3299-3.3l-0.64158-1.9435-0.12237-2.4-0.12237-2.4 0.2496 2.1288c0.13725 1.1708 0.47994 2.9258 0.76155 3.9l0.51195 1.7712 1.2368 2.4 1.2367 2.4 2.561 2.5589 2.561 2.5589 2.55 1.2703 2.55 1.2702 2.373 0.59589 2.373 0.59586h2.9725 2.9724l-0.64932 0.91188c-0.35712 0.50151-2.695 2.9785-5.1954 5.5044l-4.5461 4.5926-3 2.3709c-1.65 1.304-4.08 3.0619-5.4 3.9065-1.32 0.84462-3.7727 2.224-5.4505 3.0651l-3.0505 1.5295-3.5431 1.2217-3.5431 1.2217-3.6073 0.73041-3.6074 0.73041-2.5491 0.12159zm66.356-47.847-0.80502 0.57195-0.0326-3.4907-0.0326-3.4907-0.95634-2.8337-0.95637-2.8337-1.057-1.74c-0.58134-0.95703-1.7436-2.4913-2.5828-3.4094l-1.5257-1.6694-1.9128-1.3649-1.9128-1.3649-2.0155-0.84282-2.0155-0.84279-2.3123-0.47409-2.3124-0.47406h-2.0863-2.0863l-2.2552 0.43149-2.2552 0.43149-2.324 0.93057-2.324 0.9306-2.0386 1.3553-2.0386 1.3553-1.7708 1.7435-1.7708 1.7435-1.1962 1.7641c-0.6579 0.97026-1.5393 2.4425-1.9586 3.2717-0.41934 0.82917-1.0596 2.486-1.4229 3.682l-0.66045 2.1744-0.25296 2.1681-0.25296 2.168 0.12432-2.4674 0.12432-2.4674 0.77664-2.3326 0.77667-2.3326 1.2583-2.25 1.2583-2.25 3-3.0014 3-3.0014 2.7-1.4042 2.7-1.4042 2.4-0.6828 2.4-0.68277 3.9-0.0117 3.9-0.0117 1.65 0.41337c0.9075 0.22737 2.46 0.74781 3.45 1.1565l1.8 0.74316 2.011 1.3322 2.011 1.3322 1.8325 1.9999 1.8325 1.9998 1.3312 2.7114 1.3312 2.7114 0.47247 1.8938 0.47247 1.8938 0.20283 3.0291 0.20286 3.0291 5.1285-5.0728 5.1285-5.0728 1.8613-2.3196c1.0237-1.2758 2.7119-3.5918 3.7514-5.1466 1.0396-1.5549 2.5016-4.021 3.2491-5.4804 0.74742-1.4594 1.8483-3.9028 2.4464-5.4298 0.59808-1.527 1.4294-4.092 1.8473-5.7 0.41796-1.608 0.97293-4.2062 1.2333-5.7736l0.47331-2.85 0.21807-4.05 0.21807-4.05 0.0474 2.9096 0.0473 2.9096-0.45015 3.434-0.45015 3.434-0.86907 3.4064c-0.47799 1.8735-1.3085 4.6094-1.8457 6.0797-0.53715 1.4703-1.6701 4.0353-2.5176 5.7s-2.3026 4.1742-3.2336 5.5767c-0.93099 1.4025-2.6041 3.6975-3.718 5.1l-2.0252 2.55-4.7652 4.7188c-2.6209 2.5954-5.1275 4.9762-5.5702 5.2907zm-0.50502 0.0405c0.0825 0 0.15-0.0675 0.15-0.15s-0.0675-0.15-0.15-0.15-0.15 0.0675-0.15 0.15 0.0675 0.15 0.15 0.15zm-135.53-15.006-0.83442 0.006-0.12876-0.375c-0.0708-0.20625-0.4095-3.8175-0.75264-8.025s-0.88923-10.35-1.2135-13.65c-0.32433-3.3-0.8664-8.2275-1.2047-10.95-0.33825-2.7225-1.7536-11.7-3.1452-19.95s-3.0257-17.855-3.6315-21.345l-1.1013-6.3447-1.0768 0.39107c-0.59223 0.21509-4.1818 1.4926-7.9768 2.839-3.795 1.3463-9.87 3.3903-13.5 4.542-3.63 1.1518-8.625 2.6244-11.1 3.2724-2.475 0.64804-6.8625 1.6514-9.75 2.2298l-5.25 1.0515-4.8 0.61982-4.8 0.61982-4.5 0.0976c-2.475 0.0537-3.555 0.0506-2.4-0.007 1.155-0.0575 3.855-0.24699 6-0.42117s6.1275-0.65631 8.85-1.0714 7.0523-1.2199 9.6217-1.7885c2.5694-0.56858 6.6194-1.568 9-2.221 2.3806-0.65296 7.0958-2.0852 10.478-3.1828 3.3825-1.0976 9.5662-3.2113 13.742-4.6972 4.1754-1.4859 7.6323-2.6528 7.682-2.5932 0.0498 0.0596 1.1864 6.521 2.5259 14.358 1.3394 7.8375 2.9743 17.49 3.633 21.45 0.65868 3.96 1.4691 9.36 1.8009 12s0.87105 7.5675 1.1983 10.95c0.3273 3.3825 0.88029 9.5925 1.2289 13.8l0.63384 7.65 0.27957 0.28674 0.2796 0.28676 1.4232-0.36794c0.78279-0.20239 2.3968-0.84246 3.5866-1.4224l2.1634-1.0544 2.3366-1.737 2.3366-1.737 1.6844-1.8256 1.6844-1.8256 0.81492-1.4518c0.4482-0.79848 1.1408-2.4184 1.539-3.5999l0.72411-2.1482 0.26364-2.0518 0.26364-2.0518 0.0327 1.2 0.0328 1.2-0.43941 2.1-0.43938 2.1-1.2546 2.55-1.2547 2.55-2.5987 2.55-2.5987 2.55-2.5786 1.5958-2.5786 1.5958-2.0485 0.72291-2.0485 0.72288-0.83442 0.006zm18.874-21.594h-0.18987v-4.0015-4.0014l-0.76683-5.8236c-0.42174-3.203-1.3045-9.266-1.9617-13.474-0.65721-4.2075-1.7363-10.89-2.398-14.85-0.66171-3.96-1.8701-11.048-2.6854-15.75-0.81528-4.7025-1.5485-8.8332-1.6294-9.1794l-0.14715-0.62945 0.7584-0.34555c0.41712-0.19005 1.0806-0.34555 1.4743-0.34555 0.39375 0 2.5811 0.34308 4.8609 0.7624 2.2797 0.41932 6.1689 1.2364 8.6426 1.8157 2.4736 0.57933 7.437 1.8587 11.03 2.843 3.5927 0.98434 10.074 2.8763 14.402 4.2044 4.3287 1.328 13.338 4.1512 20.02 6.2737 6.6825 2.1225 16.268 5.1387 21.3 6.7027 5.0325 1.564 13.065 3.9992 17.85 5.4114 4.785 1.4123 11.94 3.4549 15.9 4.5392s11.79 3.1042 17.4 4.4888 11.888 2.8822 13.95 3.3282c2.0625 0.44595 3.788 0.84205 3.8346 0.88022 0.0465 0.0382 0.28011 1.5388 0.51915 3.3348l0.43458 3.2654-0.0415 3-0.0415 3-0.20838-4.05-0.20841-4.05-0.36642-2.1458-0.36642-2.1458-1.1028-0.20066c-0.60657-0.11036-4.5453-1.0046-8.7528-1.9871-4.2075-0.98255-11.552-2.8046-16.322-4.049-4.7695-1.2444-13.072-3.5244-18.45-5.0667s-13.153-3.8351-17.278-5.095-15.128-4.7058-24.45-7.6574c-9.3225-2.9517-20.258-6.3743-24.3-7.6059-4.0425-1.2316-10.252-3.0471-13.8-4.0346-3.5475-0.98744-8.8125-2.3419-11.7-3.0099s-6.9578-1.515-9.0451-1.8822l-3.7951-0.66764-0.87672 0.36315-0.87672 0.36314 0.69435 3.8106c0.3819 2.0958 1.904 11.033 3.3825 19.861 1.4785 8.8275 3.2468 19.83 3.9295 24.45l1.2413 8.4 0.16287 5.475 0.16284 5.475h-0.18987zm-228.16-18.283-0.23997 3.133-0.0427-1.8596-0.0427-1.8596 0.44755-3.3904 0.44756-3.3904 0.73813-3c0.40597-1.65 1.2-4.35 1.7645-6 0.56452-1.65 1.6671-4.455 2.4501-6.2332l1.4237-3.2332 2.1392-3.734c1.1766-2.0537 3.25-5.3326 4.6075-7.2864s3.9057-5.2843 5.6626-7.401c1.7569-2.1168 4.7637-5.4669 6.6817-7.4447 1.9181-1.9778 5.2605-5.1851 7.4276-7.1274 2.1671-1.9422 5.6436-4.8901 7.7255-6.551 2.0819-1.6608 5.6019-4.3095 7.8221-5.8859s5.7638-3.9542 7.8745-5.284c2.1107-1.3297 4.6814-2.8909 5.7127-3.4693 1.0312-0.57836 1.875-1.1514 1.875-1.2735 0-0.12204-1.4512-1.0857-3.225-2.1414s-5.0768-3.1619-7.34-4.6805c-2.2633-1.5186-5.9758-4.1762-8.25-5.9058s-5.4175-4.22-6.985-5.534c-1.5675-1.3141-4.5028-3.925-6.5228-5.802s-5.1112-4.9653-6.8694-6.8628c-1.7581-1.8975-4.5512-5.1375-6.2069-7.2l-3.0104-3.75-2.9252-4.4389-2.9252-4.4389-2.2508-4.5611-2.2508-4.5611-1.0962-2.9835c-0.60289-1.641-1.4847-4.476-1.9596-6.3-0.47489-1.824-1.0787-4.599-1.3418-6.1664l-0.47836-2.85-0.17329-5.8686-0.1733-5.8686 0.35449-3.4314c0.19497-1.8873 0.68188-5.0593 1.082-7.0489l0.72753-3.6175 1.0836-3.1325c0.59602-1.7229 1.6572-4.3475 2.3583-5.8325 0.70102-1.485 2.0402-3.9353 2.976-5.4452 0.93576-1.5098 2.6708-3.9995 3.8556-5.5326l2.1542-2.7874 3.321-3.4283c1.8266-1.8856 4.5023-4.5068 5.946-5.8249l2.625-2.3966-0.0395 1.4575-0.0395 1.4575-0.18551-1.0382-0.18551-1.0382-4.7608 4.6343-4.7608 4.6343-2.2687 2.7039c-1.2478 1.4871-3.2092 4.1214-4.3588 5.8539l-2.0901 3.15-1.7246 3.6-1.7246 3.6-1.0624 3.3125c-0.58433 1.8218-1.3329 4.6568-1.6635 6.3-0.3306 1.6431-0.74389 4.2985-0.91842 5.9007l-0.31733 2.9132 0.002 4.5868 0.002 4.5868 0.29955 2.7c0.16476 1.485 0.57916 4.185 0.92089 6l0.62133 3.3 1.4507 4.4008 1.4507 4.4008 1.8315 3.8288c1.0073 2.1058 2.8668 5.5639 4.1321 7.6846l2.3005 3.8558 2.9525 3.9356c1.6239 2.1646 4.1227 5.2986 5.553 6.9646s4.4984 4.919 6.8182 7.229c2.3197 2.31 5.8369 5.5917 7.8159 7.2927s5.1508 4.2982 7.0483 5.7716 5.2725 3.9559 7.5 5.5166c2.2275 1.5608 6.1068 4.0936 8.6206 5.6284l4.5706 2.7906 0.004 0.46754 0.004 0.46753-3.075 1.7741c-1.6912 0.97577-5.3068 3.2679-8.0347 5.0936-2.7278 1.8257-6.8453 4.7527-9.15 6.5045-2.3046 1.7517-5.8102 4.5665-7.7902 6.255l-3.6 3.07-5.5585 5.5839-5.5585 5.5839-3.2481 4.05-3.2481 4.05-2.8304 4.2593-2.8304 4.2593-2.0595 3.9907-2.0595 3.9907-1.3715 3.4971-1.3715 3.4972-1.0348 4.0028c-0.56912 2.2016-1.1875 4.9555-1.3743 6.1199-0.18672 1.1644-0.44748 3.5269-0.57946 5.25zm365.74-22.244c-0.11961-0.0146-3.6599-0.80871-7.8674-1.7647-4.2075-0.95597-10.35-2.4367-13.65-3.2905-3.3-0.85381-7.89-2.0944-10.2-2.7569-2.31-0.66247-6.63-1.958-9.6-2.8789-2.97-0.92091-8.4375-2.7498-12.15-4.0641s-10.53-3.6623-15.15-5.2176-11.64-3.8436-15.6-5.085c-3.9599-1.2414-10.71-3.2633-15-4.4932-4.2901-1.2299-12.053-3.3002-17.25-4.6008-5.1975-1.3006-10.964-2.6656-12.814-3.0332l-3.3644-0.66852 4.2644-2.0923c2.3454-1.1508 5.2094-2.528 6.3644-3.0605 1.155-0.53251 6.1944-3.088 11.199-5.6789 5.0042-2.5909 11.754-6.1449 15-7.8977 3.2458-1.7529 9.5-5.2482 13.898-7.7675 4.3983-2.5192 11.013-6.4438 14.7-8.7212 3.6867-2.2774 9.3356-5.9015 12.553-8.0536 3.2175-2.1521 8.2125-5.6713 11.1-7.8205s6.9333-5.3184 8.9906-7.0428l3.7407-3.1351 3.6321-3.6315 3.6321-3.6315 2.301-3.0547 2.301-3.0547 1.3368-2.7638 1.3368-2.7638 0.61446-3.0471 0.61446-3.0471v-3.1936-3.1937l-0.48915-2.1592c-0.26904-1.1876-0.79686-2.8572-1.1729-3.7102-0.37605-0.85305-1.0346-2.068-1.4633-2.7-0.42876-0.63194-1.4872-1.8738-2.3521-2.7596l-1.5725-1.6106-1.8-1.2287-1.8-1.2287-2.5789-1.1137-2.5789-1.1137-2.8218-0.76875c-1.552-0.4228-4.239-0.98464-5.9711-1.2485-1.7321-0.26388-4.9718-0.59325-7.1993-0.73195l-4.05-0.25217 4.35 0.11849 4.35 0.11849 2.85 0.46676c1.5675 0.25671 3.9894 0.74899 5.382 1.0939l2.532 0.62718 2.7834 1.1369 2.7834 1.1369 2.0757 1.3799 2.0757 1.3799 1.7749 1.8974 1.7749 1.8973 0.7971 1.3602c0.43842 0.74809 1.1723 2.4253 1.631 3.7272l0.83385 2.367-0.0207 5.25-0.0207 5.25-0.65808 2.4c-0.36195 1.32-1.0462 3.2294-1.5205 4.243-0.47433 1.0136-1.5595 2.876-2.4114 4.1385-0.85194 1.2625-2.3345 3.2007-3.2946 4.307-0.96006 1.1063-3.2806 3.5233-5.1567 5.371-1.8761 1.8478-4.8962 4.595-6.7112 6.1049s-5.4497 4.3622-8.0772 6.3384l-4.7772 3.5931-7.8228 5.1916c-4.3025 2.8554-9.9153 6.4708-12.473 8.0342-2.5575 1.5634-7.08 4.2609-10.05 5.9944s-7.83 4.5033-10.8 6.1551-7.965 4.3786-11.1 6.0595-11.461 5.9167-18.503 9.4128c-7.0418 3.4961-12.813 6.4301-12.825 6.52s1.1595 0.40097 2.6032 0.6913c1.4438 0.29033 6.675 1.5287 11.625 2.752s12.982 3.3646 17.85 4.7585c4.8675 1.3939 12.292 3.6164 16.5 4.9389 4.2075 1.3225 12.038 3.913 17.4 5.7567 5.3625 1.8437 13.26 4.5455 17.55 6.004s10.838 3.522 14.55 4.5857c3.7125 1.0637 9.72 2.686 13.35 3.6053 3.63 0.91924 9.354 2.2862 12.72 3.0378l6.12 1.3664 0.17397-0.17399 0.174-0.17399-2.1553-4.27-2.1553-4.27-2.2014-3.4432c-1.2108-1.8938-3.2612-4.8426-4.5564-6.5529s-3.1732-4.0696-4.1733-5.2428c-1-1.1732-3.1638-3.5892-4.8083-5.3688s-4.7558-4.8384-6.914-6.7972-5.2065-4.6299-6.774-5.9357-4.5278-3.6387-6.5784-5.1843-5.7701-4.1685-8.2656-5.8286c-2.4955-1.6602-5.3699-3.491-6.3877-4.0685s-1.8545-1.1641-1.8594-1.3035l-0.009-0.2535 1.425 0.81666c0.78375 0.44916 3.585 2.2335 6.225 3.9652s6.825 4.6668 9.3 6.5223 6.4575 5.0602 8.85 7.1214l4.35 3.7478 4.4552 4.4668 4.4552 4.4668 3.1948 3.8507c1.7572 2.1179 4.0773 5.0879 5.156 6.6 1.0786 1.5121 2.6516 3.8349 3.4955 5.1618 0.84396 1.3268 2.2158 3.6894 3.0486 5.25s1.9902 3.8838 2.5719 5.1625l1.0577 2.325-0.21741-0.0266zm-237.74-15c-1.2788 0.30051-2.325 0.50286-2.325 0.44966s-0.47014-2.9704-1.0448-6.4827c-0.57462-3.5123-1.3844-8.918-1.7995-12.013-0.41509-3.0948-1.0174-8.2248-1.3383-11.4-0.32098-3.1752-0.73758-8.1357-0.92577-11.023l-0.34217-5.25 0.11853-1.8 0.11854-1.8 0.0572 2.55c0.0315 1.4025 0.26391 5.3175 0.51651 8.7 0.25259 3.3825 0.79784 9.12 1.2116 12.75 0.41382 3.63 1.2193 9.705 1.7899 13.5 0.57064 3.795 1.2213 7.9499 1.446 9.2332 0.22464 1.2832 0.48115 2.4058 0.57001 2.4947l0.16158 0.16158 1.1553-0.30522c0.6354-0.16787 3.5178-0.6434 6.4053-1.0567 2.8875-0.41333 7.815-1.1065 10.95-1.5404 3.135-0.43387 7.86-1.1892 10.5-1.6784 2.64-0.48928 6.8925-1.4149 9.45-2.057l4.65-1.1674 4.4778-1.5315c2.4628-0.84232 6.2894-2.2686 8.5036-3.1696 2.2142-0.90096 5.8692-2.4699 8.1222-3.4865s4.1374-1.8778 4.1877-1.9138c0.0502-0.036-0.99552-5.9425-2.3239-13.126-1.3283-7.1831-3.4363-18.234-4.6843-24.559-1.248-6.3242-3.0172-15.076-3.9314-19.449-0.91422-4.3725-1.7637-8.0584-1.8878-8.1908l-0.22551-0.24077-4.2601 1.8298c-2.3431 1.0064-6.0378 2.6441-8.2105 3.6393-2.1727 0.99524-7.3176 3.4937-11.433 5.5522-4.1155 2.0585-9.8569 5.0408-12.759 6.6274-2.9019 1.5866-7.9761 4.4641-11.276 6.3944-3.3 1.9303-7.62 4.5178-9.6 5.75l-3.6 2.2403-0.18951 0.87398-0.1895 0.87399-0.0355-0.95794-0.0355-0.95793 3.825-2.3698c2.1038-1.3034 5.7825-3.5283 8.175-4.9442 2.3925-1.416 7.05-4.078 10.35-5.9157s9.5775-5.1386 13.95-7.3355 9.6375-4.7748 11.7-5.7287c2.0625-0.95393 6.045-2.7247 8.85-3.9351l5.1-2.2007 0.21996 0.52279c0.12096 0.28753 1.091 4.7078 2.1556 9.8228s2.8167 13.822 3.8936 19.35c1.0769 5.5275 2.6285 13.628 3.4481 18 0.81957 4.3725 1.9141 10.296 2.4322 13.164l0.94206 5.2143-0.26385 0.26384c-0.14511 0.14511-2.0782 1.087-4.2957 2.093s-6.1244 2.6745-8.6819 3.7078-6.5854 2.5103-8.951 3.2823c-2.3656 0.77201-6.4918 1.9353-9.1695 2.5851-2.6777 0.64977-7.2222 1.5843-10.099 2.0768-2.8768 0.49246-9.2805 1.4444-14.231 2.1153l-9 1.2199-2.325 0.54639zm92.386-30.163-4.7388 2.2709-0.11199-0.36367c-0.0616-0.20002-1.3504-6.9787-2.8641-15.064-1.5136-8.085-4.2145-22.015-6.0019-30.954-1.7874-8.94-3.2936-16.561-3.3471-16.936l-0.0973-0.68123 4.5-1.4485c2.475-0.79669 8.0775-2.5353 12.45-3.8635s10.35-3.0815 13.284-3.8963c2.9339-0.81474 8.2952-2.2157 11.914-3.1132 3.6188-0.89753 9.5208-2.2354 13.116-2.9729 3.5948-0.73758 8.7635-1.6863 11.486-2.1083s6.7725-0.9704 9-1.2187l4.05-0.45139 1.8 0.0476 1.8 0.0475-1.2 0.099c-0.66 0.0545-2.7525 0.23786-4.65 0.40752-1.8975 0.16967-5.8125 0.65211-8.7 1.0721s-7.95 1.3015-11.25 1.9589c-3.3 0.65739-8.295 1.7403-11.1 2.4066-2.805 0.66621-7.395 1.8131-10.2 2.5487-2.805 0.73555-8.1309 2.2164-11.835 3.2907-3.7044 1.0743-10.184 3.0417-14.4 4.3719-4.2156 1.3302-8.1034 2.5594-8.6397 2.7315l-0.975 0.31295v0.44192c0 0.24306 0.95046 5.1142 2.1121 10.825 1.1617 5.7105 3.3097 16.593 4.7734 24.183s3.2339 16.905 3.9338 20.7c0.69984 3.795 1.315 6.9519 1.367 7.0154s2.4951-1.042 5.4291-2.4566c2.9341-1.4146 8.5746-3.9789 12.535-5.6985 3.96-1.7196 9.63-4.2506 12.6-5.6244s9.585-4.6099 14.7-7.1914 11.798-6.0802 14.85-7.7748c3.0525-1.6947 7.71-4.3718 10.35-5.9493 2.64-1.5774 7.095-4.3811 9.9-6.2303s6.315-4.2771 7.8-5.3953 3.809-2.9687 5.1644-4.1124c1.3554-1.1436 3.2249-2.9007 4.1543-3.9046 0.92946-1.0039 2.1469-2.5136 2.7055-3.3548l1.0156-1.5296 0.47712-1.6067c0.26244-0.88366 0.58512-2.4347 0.71709-3.4467l0.23994-1.84 0.038 1.227 0.038 1.227-0.58569 2.29-0.58569 2.29-1.0771 1.6838-1.0771 1.6838-2.4622 2.4771-2.4622 2.4771-3.0608 2.4235c-1.6834 1.3329-4.3834 3.3595-6 4.5036-1.6166 1.144-4.8376 3.2979-7.158 4.7864s-6.5054 4.0496-9.3 5.6912-7.493 4.3041-10.441 5.9165c-2.9477 1.6125-8.7527 4.6469-12.9 6.7432s-10.24 5.0727-13.54 6.6142-9.78 4.4561-14.4 6.4769-10.532 4.696-13.139 5.945zm88.144-14.506c-0.0852 0-0.15498-0.0544-0.15498-0.12088 0-0.0665 1.3838-0.96513 3.075-1.997s4.918-3.1226 7.1707-4.646c2.2526-1.5234 5.6325-3.9242 7.5109-5.3351 1.8784-1.4108 5.1653-4.0242 7.3043-5.8075l3.8891-3.2423 4.7647-4.6506 4.7647-4.6506 2.8491-3.3c1.567-1.815 3.8342-4.5966 5.0383-6.1814 1.204-1.5848 3.212-4.4369 4.4623-6.3381l2.2731-3.4568 2.0705-4.0119 2.0705-4.0119 1.3715-3.4971 1.3715-3.4972 1.0348-4.0028c0.56913-2.2016 1.1875-4.9555 1.3743-6.1199 0.18672-1.1644 0.44748-3.5269 0.57945-5.25l0.23997-3.133 0.0427 1.8596 0.0427 1.8596-0.44757 3.3904-0.44754 3.3904-0.73374 3c-0.40359 1.65-1.2817 4.5835-1.9515 6.5189l-1.2177 3.5189-1.6321 3.46c-0.8976 1.903-2.57 5.0445-3.7164 6.9811s-3.2137 5.0973-4.5939 7.0237c-1.3803 1.9265-3.6966 4.9281-5.1473 6.6702-1.4507 1.7422-4.1507 4.7446-6 6.6719-1.8493 1.9274-4.9823 4.9831-6.9623 6.7904-1.98 1.8074-5.49 4.8103-7.8 6.6731-2.31 1.8629-6.2558 4.8544-8.7684 6.6479-2.5126 1.7934-6.5941 4.5057-9.07 6.0273s-4.5714 2.7665-4.6567 2.7665zm-206.03-18.211-0.10325 2.1613 0.0009-4.5 0.0009-4.5 0.10249 2.3387c0.0564 1.2863 0.056 3.3113-0.0009 4.5zm23.553-10.413-5.175 3.405v-0.85543c0-0.47048 0.27676-2.9299 0.61503-5.4653s0.95363-6.3649 1.3675-8.5099c0.41383-2.145 1.3012-6.06 1.9718-8.7 0.67068-2.64 1.7569-6.42 2.4139-8.4 0.65697-1.98 1.7947-5.0744 2.5284-6.8764 0.73364-1.802 2.202-4.9836 3.263-7.0701l1.9291-3.7937 2.0691-3.1299 2.0691-3.1299 2.074-2.396 2.074-2.396 1.9788-1.654c1.0883-0.90968 2.7119-2.0943 3.6079-2.6325 0.89602-0.53817 2.43-1.2769 3.4088-1.6416l1.7796-0.66307 3-0.008 3-0.008 1.779 0.83315 1.779 0.83314 1.2903 1.0573 1.2903 1.0573 1.3337 1.7333 1.3337 1.7333 1.1923 2.3762c0.65573 1.3069 1.5947 3.5238 2.0866 4.9262 0.49191 1.4025 1.3784 4.17 1.9699 6.15 0.59154 1.98 1.7457 6.2056 2.5648 9.3902l1.4892 5.7902-0.65448 0.24968c-0.35997 0.13732-3.3545 1.4896-6.6545 3.0052-3.3 1.5155-8.97 4.277-12.6 6.1367s-8.49 4.4351-10.8 5.7231c-2.31 1.2881-6.9 3.9583-10.2 5.9338s-8.3288 5.1241-11.175 6.9968zm-4.715 2.5243c0.088 0 1.5392-0.92078 3.225-2.0462s5.36-3.4693 8.165-5.2088c2.805-1.7394 7.395-4.4779 10.2-6.0854 2.805-1.6076 7.8874-4.399 11.294-6.2032 3.4069-1.8042 9.1444-4.6683 12.75-6.3646s7.4669-3.476 8.5807-3.9548l2.025-0.87055v-0.41973c0-0.23085-0.75294-3.2613-1.6732-6.7344-0.92025-3.473-2.3429-8.3831-3.1615-10.911-0.81852-2.5281-1.8922-5.4969-2.386-6.5974-0.49376-1.1005-1.496-2.9009-2.2273-4.0008l-1.3295-1.9999-1.5192-1.4211-1.5192-1.4211-1.9717-0.92268-1.9717-0.92267-2.0002-0.14312-2.0002-0.14311-1.9427 0.4977-1.9427 0.4977-1.9313 1.0616c-1.0622 0.58386-2.7017 1.6544-3.6433 2.3789l-1.712 1.3174-2.3153 2.4836-2.3153 2.4836-2.4974 3.75-2.4974 3.75-1.8267 3.6-1.8267 3.6-1.7832 4.5401-1.7832 4.5401-1.3264 4.4599c-0.7295 2.4529-1.743 6.3499-2.2523 8.6599-0.50926 2.31-1.1332 5.3475-1.3866 6.75-0.25336 1.4025-0.7279 4.44-1.0545 6.75-0.32664 2.31-0.596 4.4362-0.59858 4.725-0.003 0.28875 0.0673 0.525 0.15531 0.525zm-19.136-2.3087-0.097 3.0587 0.0003-6.3 0.0003-6.3 0.0966 3.2413c0.0531 1.7827 0.0529 4.6177-0.0003 6.3zm0.37614-15.391-0.25719 5.55 0.12722-6 0.12723-6 0.45936-5.25c0.25264-2.8875 0.73514-7.4775 1.0722-10.2 0.33707-2.7225 1.0664-7.6627 1.6207-10.978 0.55433-3.3155 1.499-8.243 2.0992-10.95 0.60026-2.707 1.6298-6.9267 2.2879-9.3772 0.65811-2.4505 1.8779-6.568 2.7107-9.15 0.83278-2.582 2.4551-7.091 3.605-10.02l2.0909-5.3253 2.6576-5.3247c1.4617-2.9286 3.5782-6.8444 4.7034-8.7019s3.2608-5.0238 4.7458-7.0363l2.7-3.6591 3.45-3.5045 3.45-3.5045 2.5243-1.8515 2.5243-1.8515 2.7257-1.3176 2.7257-1.3177 2.085-0.5166 2.085-0.5166-1.635-1.478c-0.89927-0.81288-3.2645-2.7928-5.256-4.3999l-3.621-2.9219-3.879-2.5746c-2.1335-1.416-5.1521-3.2626-6.7081-4.1034-1.556-0.84087-4.1294-2.1249-5.7187-2.8534-1.5893-0.72852-4.4337-1.8558-6.3209-2.505-1.8872-0.64926-4.6728-1.4708-6.1902-1.8256-1.5174-0.35484-4.1499-0.84289-5.85-1.0846-1.7001-0.24166-4.0361-0.46684-5.1911-0.50038l-2.1-0.061 1.65-0.11586 1.65-0.11585 2.8467 0.33262c1.5657 0.18294 4.1982 0.60989 5.85 0.94877l3.0033 0.61614 4.05 1.3425 4.05 1.3425 4.2703 2.0581c2.3487 1.132 5.7578 2.9544 7.5759 4.0498s4.8914 3.1489 6.8297 4.5633 5.1441 3.9497 7.1241 5.634c1.98 1.6842 3.7699 3.2671 3.9776 3.5175l0.3776 0.45522-1.3445 0.18429-1.3445 0.18429-2.3757 0.91617-2.3757 0.91616-2.4566 1.4765c-1.3511 0.81205-3.3924 2.2421-4.5362 3.1778-1.1438 0.93575-3.3941 3.0792-5.0008 4.7633l-2.9212 3.062-2.25 3.0531c-1.2375 1.6792-3.1623 4.5034-4.2773 6.2759l-2.0273 3.2228-2.6689 5.25c-1.4679 2.8875-3.4376 7.0725-4.377 9.3l-1.7082 4.05-2.3535 7.05-2.3536 7.05-1.356 5.25c-0.74581 2.8875-1.8898 7.8825-2.5422 11.1-0.65242 3.2175-1.5282 8.0775-1.9462 10.8-0.41797 2.7225-1.0304 7.3125-1.3608 10.2-0.33049 2.8875-0.75189 7.14-0.93644 9.45s-0.45129 6.6975-0.59274 9.75zm215.94-8.1841-0.0937 1.1341-0.20343-1.7259-0.2034-1.7259-0.77973-1.7031-0.77973-1.7032-1.0445-1.2747-1.0445-1.2747-2.0223-1.3313-2.0224-1.3313-1.994-0.78712c-1.0967-0.43291-2.8581-0.98752-3.9143-1.2325-1.0562-0.24495-2.9264-0.595-4.156-0.7779l-2.2357-0.33255-5.7-0.25058-5.7-0.25058 6 0.11141 6 0.1114 2.55 0.43285c1.4025 0.23807 3.4275 0.66146 4.5 0.94087l1.95 0.50802 2.2298 1.0291 2.2298 1.0291 1.5942 1.23 1.5943 1.2299 1.2037 1.8026 1.2037 1.8026 0.4659 1.6026 0.46587 1.6026-0.0936 1.1341zm-118.74-13.3-0.45 0.18337-1.4451-6.3746c-0.79482-3.506-3.7951-15.801-6.6672-27.323s-5.2513-21.382-5.287-21.913l-0.065-0.96448 1.0134-1.4871c0.55737-0.8179 2.0262-2.8371 3.264-4.4871 1.2379-1.65 3.8317-4.9575 5.764-7.35 1.9324-2.3925 5.3155-6.3739 7.5181-8.8475s6.2336-6.7261 8.9579-9.45c2.7242-2.7239 6.7067-6.4887 8.85-8.3664 2.1433-1.8776 5.3783-4.5776 7.189-6 1.8106-1.4224 5.3846-3.977 7.9421-5.677l4.65-3.0909 4.9579-2.476 4.9579-2.476 3.3729-1.1172c1.8551-0.61445 4.6226-1.3852 6.15-1.7128l2.7771-0.59567 3.6-0.12467 3.6-0.12467-3.15 0.24026c-1.7325 0.13215-4.3601 0.47015-5.8391 0.75112s-3.9765 0.92317-5.55 1.4271c-1.5735 0.50394-4.2784 1.5207-6.0109 2.2594-1.7325 0.73874-4.5 2.0853-6.15 2.9924-1.65 0.90707-4.89 2.8956-7.2 4.4189s-5.55 3.8234-7.2 5.1113-4.1384 3.3016-5.5297 4.475-4.6313 4.1029-7.2 6.51l-4.6703 4.3766-4.5487 4.9234c-2.5018 2.7078-5.5892 6.1384-6.8608 7.6234s-3.8299 4.59-5.6852 6.9c-1.8552 2.31-4.5392 5.8126-5.9643 7.7836l-2.5911 3.5836v0.80289 0.8029l5.0712 20.364c2.7891 11.2 5.7723 23.401 6.6292 27.114 0.85695 3.7125 1.5942 6.788 1.6384 6.8345 0.0441 0.0465 3.9122-1.2087 8.5957-2.7893s11.893-3.9376 16.021-5.2377c4.1283-1.3001 10.541-3.2393 14.25-4.3094 3.7092-1.07 9.5816-2.696 13.05-3.6132 3.4682-0.91719 9.2057-2.3366 12.75-3.1543 3.5444-0.81769 8.9197-1.9728 11.945-2.5669 3.0255-0.59411 7.683-1.4216 10.35-1.8389 2.667-0.41727 7.1441-1.0242 9.9491-1.3487l5.1-0.59001 4.95-0.12207 4.95-0.12208-4.5108 0.24784c-2.481 0.1363-6.0585 0.40685-7.95 0.60122-1.8916 0.19436-5.7634 0.6815-8.6042 1.0825-2.8407 0.40103-7.7278 1.2018-10.86 1.7795-3.1323 0.5777-8.4356 1.6608-11.785 2.4069-3.3494 0.74608-9.2624 2.1722-13.14 3.1693-3.8775 0.99703-10.965 2.9426-15.75 4.3236-4.785 1.3809-11.738 3.4736-15.45 4.6503-3.7125 1.1767-10.462 3.3972-15 4.9344-4.5375 1.5372-8.4525 2.8774-8.7 2.9783zm172.14-18.416c-0.0833 0-0.24627-1.9238-0.3621-4.275l-0.21054-4.275-0.4509-3.2798-0.4509-3.2798-0.87369-3.3885c-0.48054-1.8637-1.3569-4.6403-1.9475-6.1702-0.59061-1.5299-1.7395-4.0465-2.553-5.5924-0.81354-1.5459-2.2142-3.9084-3.1124-5.25-0.89829-1.3416-2.547-3.5868-3.6637-4.9893l-2.0305-2.55-4.9286-4.875c-2.7108-2.6812-5.0464-4.875-5.1902-4.875h-0.26157v2.0736 2.0736l-0.43326 2.2645-0.43329 2.2645-0.73533 1.8205c-0.40446 1.0013-1.1882 2.5709-1.7417 3.488l-1.0064 1.6675-1.7454 1.7931-1.7454 1.7931-2.0046 1.2876-2.0046 1.2876-1.95 0.7681-1.95 0.76811-1.7801 0.32501-1.7801 0.32502-3.0199-0.002-3.0199-0.002-2.4678-0.59163-2.4678-0.59163-1.9234-0.87211c-1.0579-0.47966-2.7643-1.4432-3.7921-2.1411l-1.8687-1.269-1.7303-1.7303-1.7303-1.7303-1.269-1.8687c-0.69795-1.0278-1.6615-2.7342-2.1411-3.7921l-0.87213-1.9234-0.59163-2.4678-0.59163-2.4678v-3.15-3.15l0.6024-2.5128 0.6024-2.5128 1.2014-2.3092 1.2014-2.3093 1.2691-1.4971c0.69801-0.82342 1.9771-2.096 2.8423-2.8279l1.5733-1.3308 2.0195-1.1104 2.0195-1.1104 2.3955-0.64638 2.3955-0.64638 2.9367-0.16182 2.9367-0.16182v-0.21795c0-0.11988-2.1938-2.4358-4.875-5.1466l-4.875-4.9286-2.55-2.0305c-1.4025-1.1168-3.6312-2.7544-4.9527-3.6393-1.3215-0.88487-3.549-2.2182-4.95-2.963s-3.9421-1.9067-5.6469-2.582l-3.0996-1.2279-3.3706-0.86907-3.3706-0.86908-3.3651-0.46934c-1.8508-0.25814-4.2717-0.49432-5.3798-0.52484l-2.0147-0.0555 1.65-0.11741 1.65-0.11741 2.85 0.34964c1.5675 0.1923 4.1238 0.60971 5.6807 0.92757l2.8306 0.57792 3.5871 1.1993 3.5871 1.1993 3.0322 1.4639 3.0322 1.4639 3.15 2.0783c1.7325 1.1431 4.4325 3.1397 6 4.437l2.85 2.3587 3.6714 3.7242c2.0193 2.0483 4.1968 4.3524 4.839 5.1201l1.1676 1.3959-3.3391 0.0148-3.339 0.0148-1.95 0.51827-1.95 0.51827-2.1 0.99875-2.1 0.99876-1.8611 1.4082-1.8611 1.4082-1.5019 1.8874-1.5019 1.8874-1.0621 2.0906-1.0621 2.0906-0.63444 2.509-0.63447 2.509 0.15 3.6231 0.15003 3.6231 0.49782 1.8 0.49782 1.8 1.1842 2.4523 1.1842 2.4523 1.7564 2.2102 1.7564 2.2102 1.9437 1.5467 1.9437 1.5467 2.2273 1.1901 2.2273 1.1901 2.1 0.65907 2.1 0.65907 3.7611 0.1541 3.7611 0.1541 2.5118-0.63518 2.5118-0.63519 2.1271-1.0511 2.1271-1.0511 1.8764-1.5368 1.8764-1.5368 1.3812-1.8374c0.75966-1.0106 1.7589-2.5855 2.2204-3.5 0.46161-0.91441 1.1495-2.6703 1.5288-3.902l0.68952-2.2394 0.0138-3.4885 0.0138-3.4885 1.3959 1.1671c0.76776 0.6419 3.0718 2.8192 5.1201 4.8385l3.7242 3.6714 2.3044 2.7859c1.2675 1.5322 3.0922 3.9622 4.0549 5.4 0.96273 1.4378 2.244 3.5021 2.8473 4.5874s1.6861 3.3803 2.4063 5.1c0.72018 1.7197 1.6603 4.3417 2.0891 5.8267 0.42882 1.485 0.9816 3.7125 1.2284 4.95 0.24675 1.2375 0.58578 3.3975 0.75336 4.8s0.39663 4.4062 0.50898 6.675 0.13611 4.125 0.0528 4.125zm-322.59-28.911-4.2 0.11447-2.2164-0.59875c-1.219-0.32932-2.936-0.92819-3.8155-1.3308-0.87951-0.40266-2.2446-1.1747-3.0336-1.7156-0.78897-0.54092-2.093-1.5966-2.8978-2.3459l-1.4634-1.3625-1.1958-1.7588c-0.65769-0.96736-1.5872-2.6221-2.0657-3.6772l-0.86984-1.9184-0.44157-1.8728-0.44155-1.8728 0.035-1.5 0.035-1.5 0.23404 2.0069c0.12872 1.1038 0.46074 2.7913 0.73783 3.75l0.5038 1.7431 1.2367 2.4 1.2367 2.4 2.561 2.5652 2.561 2.5652 2.85 1.387 2.85 1.387 2.1592 0.47282 2.1592 0.47281h2.9678 2.9678l2.373-0.60477 2.373-0.60477 2.1732-1.0296c1.1953-0.56628 2.8153-1.4683 3.6-2.0044 0.78472-0.53614 2.2188-1.7244 3.1869-2.6406l1.7602-1.6658 1.2783-1.8c0.70306-0.99 1.5834-2.4049 1.9562-3.1442 0.37288-0.73933 0.99986-2.2906 1.3933-3.4474l0.71531-2.1031 0.34013-2.7676 0.34012-2.7676-0.36317-2.596-0.36317-2.596-0.84714-2.3212-0.84715-2.3212-1.1008-1.7208c-0.60543-0.94643-1.7356-2.4-2.5116-3.2302l-1.4108-1.5094-1.8845-1.3456-1.8845-1.3456-2.0155-0.84456-2.0155-0.84455-2.4898-0.5025-2.4898-0.5025-2.4994 0.10517-2.4994 0.10518 2.3369-2.55c1.2853-1.4025 3.8004-3.9755 5.5892-5.7177 1.7887-1.7423 4.2789-3.9962 5.5338-5.0088s3.4149-2.6026 4.8-3.5335l2.5184-1.6924 3.9-1.9326 3.9-1.9326 3.15-1.0135c1.7325-0.55742 4.4325-1.2855 6-1.6179 1.5675-0.33243 4.1325-0.76046 5.7-0.95118l2.85-0.34677 1.5 0.11945 1.5 0.11945-1.9115 0.0541c-1.0513 0.0297-3.3463 0.26362-5.1 0.51973s-4.471 0.78708-6.0385 1.1799c-1.5675 0.39285-4.065 1.1403-5.55 1.661l-2.7 0.94669-3.2937 1.6382-3.2937 1.6382-2.8563 1.9071c-1.571 1.0489-4.1388 2.9821-5.7063 4.2959l-2.85 2.3888-4.5 4.6143-4.5 4.6143 3.0298 0.18424 3.0298 0.18424 1.5987 0.38352c0.87927 0.21093 2.4183 0.71536 3.4202 1.1209l1.8215 0.73742 2.011 1.3336 2.011 1.3336 1.7889 1.9522 1.7889 1.9522 1.2101 2.326 1.2101 2.326 0.67254 2.383 0.67254 2.383-0.007 3.6-0.007 3.6-0.50461 2.0629c-0.27754 1.1346-0.88434 2.9667-1.3484 4.0713-0.46411 1.1046-1.3679 2.798-2.0085 3.763-0.64056 0.96505-1.9031 2.5522-2.8056 3.527l-1.6409 1.7724-1.8211 1.2913c-1.0016 0.71024-2.6311 1.6968-3.6211 2.1923-0.99 0.49552-2.745 1.2032-3.9 1.5727l-2.1 0.67176-4.2 0.11446zm50.55-72.594h-2.55l1.275-0.11484c0.70125-0.0632 1.8488-0.0632 2.55 0l1.275 0.11484h-2.55zm172.5 0.009h-1.95l0.975-0.121c0.53625-0.0666 1.4138-0.0666 1.95 0l0.975 0.121h-1.95z"/>
   <path d="m245.96 603.89-4.5 0.14595-3.0094-0.25266c-1.6552-0.13899-4.3497-0.48099-5.9879-0.76005s-4.3523-0.89313-6.0314-1.3646c-1.6791-0.47145-4.1145-1.2767-5.4121-1.7895-1.2976-0.51279-3.624-1.5957-5.1699-2.4066-1.5459-0.81084-3.9084-2.2092-5.25-3.1075-1.3416-0.89829-3.5868-2.5438-4.9893-3.6568l-2.55-2.0235-5.0598-5.1222-5.0598-5.1222 3.1098-0.18363 3.1098-0.18363 1.95-0.4929 1.95-0.4929 2.4-1.1789 2.4-1.1789 1.5863-1.3583c0.87245-0.74706 2.1979-2.0721 2.9455-2.9446l1.3592-1.5863 1.3298-2.7 1.3298-2.7 0.44972-2.1946 0.44972-2.1946v-2.843-2.843l-0.47719-2.3102-0.4772-2.3102-0.72058-1.7734c-0.39632-0.97536-1.3314-2.7535-2.078-3.9513l-1.3574-2.1779-2.1206-2.1206-2.1206-2.1206-2.1779-1.3574c-1.1979-0.74658-2.976-1.6817-3.9513-2.078l-1.7734-0.72057-2.3102-0.47721-2.3102-0.47718-2.9376 0.003-2.9376 0.003-2.5128 0.6024-2.5128 0.6024-2.3163 1.2051-2.3163 1.2051-1.5571 1.3292c-0.85642 0.73104-2.1684 2.043-2.9154 2.9154l-1.3583 1.5863-1.1789 2.4-1.1789 2.4-0.49291 1.95-0.49291 1.95-0.18362 3.1098-0.18362 3.1098-5.1222-5.0598-5.1222-5.0598-2.0235-2.55c-1.1129-1.4025-2.7584-3.6477-3.6567-4.9893-0.89828-1.3416-2.2989-3.7041-3.1124-5.25-0.81355-1.5459-1.9624-4.0624-2.553-5.5924-0.59062-1.5299-1.4684-4.3118-1.9505-6.1818l-0.87668-3.4001-0.45053-3.4182c-0.24779-1.88-0.53567-4.9032-0.63973-6.7182l-0.18922-3.3 0.32953-4.35c0.18124-2.3925 0.5297-5.5098 0.77435-6.9274s0.90621-4.2526 1.4701-6.3l1.0253-3.7244 1.3904-3.45c0.76473-1.8975 2.2622-5.1217 3.3278-7.165l1.9374-3.715 2.8143-4.235 2.8143-4.235 3.2481-4.05 3.2481-4.05 5.5585-5.5839 5.5585-5.5839 3.6-3.07c1.98-1.6885 5.4856-4.5032 7.7903-6.255 2.3047-1.7517 6.4222-4.6787 9.15-6.5045 2.7278-1.8257 6.3434-4.1178 8.0347-5.0936l3.075-1.7741-0.004-0.46753-0.004-0.46754-4.5706-2.7906c-2.5138-1.5348-6.393-4.0676-8.6206-5.6284-2.2275-1.5608-5.6025-4.0433-7.5-5.5166-1.8975-1.4734-5.0692-4.0706-7.0483-5.7716-1.979-1.701-5.4962-4.9827-7.8159-7.2927s-5.3879-5.5631-6.8182-7.229c-1.4303-1.666-3.9291-4.8-5.553-6.9646l-2.9525-3.9356-2.3005-3.8558c-1.2653-2.1207-3.1247-5.5787-4.1321-7.6846l-1.8315-3.8288-1.4507-4.4008-1.4507-4.4008-0.62133-3.3c-0.34173-1.815-0.75613-4.515-0.92088-6l-0.29956-2.7-0.002-4.5868-0.002-4.5868 0.31733-2.9132c0.17453-1.6022 0.58782-4.2576 0.91843-5.9007 0.3306-1.6432 1.0792-4.4782 1.6635-6.3l1.0624-3.3125 1.7246-3.6 1.7246-3.6 2.0901-3.15c1.1496-1.7325 3.111-4.3668 4.3588-5.8539l2.2687-2.7039 4.7608-4.6343 4.7608-4.6343 0.1811 3.7382 0.1811 3.7382 0.66514 1.9286c0.36583 1.0607 0.94458 2.4782 1.2861 3.15 0.34154 0.67178 1.1351 1.9801 1.7634 2.9074l1.1424 1.686 1.787 1.6171 1.7869 1.6171 1.9034 1.1296 1.9034 1.1296 2.4 0.8074 2.4 0.80739 4.65 0.01 4.65 0.01 2.2394-0.7032c1.2317-0.38676 3.0542-1.1114 4.05-1.6104 0.99581-0.49895 2.6301-1.4883 3.6317-2.1985l1.8211-1.2913 1.6409-1.7724c0.9025-0.97481 2.165-2.562 2.8056-3.527 0.64056-0.96505 1.5444-2.6584 2.0085-3.763s1.0709-2.9367 1.3484-4.0713l0.50462-2.0629 0.007-3.6 0.007-3.6-0.67255-2.383-0.67254-2.383-1.2101-2.326-1.2101-2.326-1.7889-1.9522-1.7889-1.9522-2.011-1.3336-2.011-1.3336-1.8215-0.73743c-1.0018-0.40558-2.5409-0.91-3.4202-1.1209l-1.5987-0.38351-3.0298-0.18425-3.03-0.18424 4.5-4.6143 4.5-4.6143 2.85-2.3888c1.5675-1.3138 4.1353-3.247 5.7063-4.2959l2.8563-1.9071 3.2937-1.6382 3.2937-1.6382 2.7-0.94669c1.485-0.52068 3.9825-1.2681 5.55-1.661 1.5675-0.39285 4.335-0.94125 6.15-1.2187l3.3-0.50441 6-0.0135 6-0.0135 2.85 0.37415c1.5675 0.20579 4.382 0.71157 6.2545 1.124l3.4045 0.74979 3.4768 1.1988c1.9122 0.65937 4.7771 1.7949 6.3664 2.5234 1.5893 0.72851 4.1627 2.0126 5.7187 2.8534 1.556 0.84087 4.5746 2.6874 6.7081 4.1034l3.879 2.5746 3.621 2.9219c1.9915 1.6071 4.3567 3.587 5.256 4.3999l1.635 1.478-2.085 0.5166-2.085 0.5166-2.7257 1.3177-2.7257 1.3177-2.5243 1.8515-2.5243 1.8515-3.45 3.5045-3.45 3.5045-2.7 3.6591c-1.485 2.0125-3.6206 5.1788-4.7458 7.0363s-3.2418 5.7733-4.7034 8.7019l-2.6576 5.3247-2.0909 5.3253c-1.15 2.9289-2.7723 7.4379-3.605 10.02-0.83278 2.582-2.0526 6.6995-2.7107 9.15s-1.6877 6.6702-2.2879 9.3772c-0.60025 2.707-1.5449 7.6345-2.0992 10.95-0.55433 3.3155-1.2837 8.2558-1.6207 10.978-0.33707 2.7225-0.81766 7.3125-1.068 10.2l-0.45511 5.25-0.34062 9.2137-0.34062 9.2138 0.33585 9.6733 0.33584 9.6733-0.22296 0.1913c-0.12262 0.10521-2.923 2.3547-6.223 4.9988s-8.0925 6.602-10.65 8.7954c-2.5575 2.1933-6.81 5.9498-9.45 8.3477s-8.1789 7.7423-12.309 11.876c-4.1297 4.134-9.1286 9.3389-11.109 11.566-1.98 2.2275-4.959 5.6827-6.62 7.6782s-4.0522 4.9913-5.3139 6.6574c-1.2617 1.666-3.3021 4.538-4.5343 6.3821s-2.8545 4.5421-3.6051 5.9956l-1.3648 2.6426-0.18807 1.3721-0.18807 1.3721h0.59892 0.59891l1.1669-0.78703c0.64178-0.43287 1.7744-1.3343 2.5169-2.0031 0.7425-0.66883 5.4-5.0861 10.35-9.8162s10.958-10.394 13.35-12.587c2.3925-2.1929 6.375-5.7628 8.85-7.9331s6.12-5.2975 8.1-6.9494 5.2875-4.3556 7.35-6.0082 5.64-4.4263 7.95-6.1637 5.9223-4.3949 8.0273-5.9055 3.9613-2.7465 4.125-2.7465h0.29768v1.0058c0 0.55318 0.40932 4.2994 0.90959 8.325 0.50028 4.0256 1.3116 10.019 1.8029 13.319 0.49132 3.3 1.3032 8.3625 1.8041 11.25 0.50095 2.8875 1.5218 8.355 2.2685 12.15 0.74672 3.795 1.9635 9.6675 2.704 13.05 0.74049 3.3825 2.344 10.2 3.5634 15.15s3.1716 12.474 4.3383 16.719c1.1667 4.2456 3.2071 11.333 4.5342 15.75 1.3271 4.4169 3.7712 12.148 5.4312 17.181 1.66 5.0325 4.1331 12.255 5.4957 16.05s3.5137 9.5325 4.7802 12.75 2.8586 7.1195 3.5381 8.6711l1.2354 2.8211-0.87787 0.70503c-0.48283 0.38775-1.8904 1.4354-3.1279 2.328-1.2375 0.89262-3.5756 2.4554-5.1957 3.4728s-4.4551 2.6417-6.3 3.6095c-1.8448 0.96786-4.8855 2.3743-6.757 3.1254-1.8715 0.75111-4.774 1.7618-6.45 2.2459-1.676 0.48414-4.0597 1.0848-5.2972 1.3349-1.2375 0.25005-3.33 0.58857-4.65 0.75228s-4.425 0.36336-6.9 0.44364zm171.9-2.0591-6 0.10893-2.4974-0.26169c-1.3736-0.14391-3.9615-0.5418-5.7511-0.88419-1.7895-0.34236-4.6482-1.036-6.3526-1.5415-1.7044-0.50544-4.7291-1.5884-6.7215-2.4067l-3.6226-1.4877-3.7652-2.0521c-2.0709-1.1286-5.2332-3.0343-7.0274-4.2349-1.7942-1.2005-4.3394-3.0018-5.6561-4.0028-1.3166-1.001-3.3416-2.6277-4.5-3.615-1.1584-0.98727-3.55-3.1293-5.3149-4.7601-1.7648-1.6308-4.8922-4.8096-6.9497-7.064s-4.8559-5.449-6.2187-7.099-3.6909-4.62-5.1736-6.6c-1.4826-1.98-4.0192-5.5933-5.6368-8.0295s-3.505-5.3787-4.1942-6.5388l-1.2531-2.1093-0.44166 0.0888-0.44163 0.0888-2.4548 4.05c-1.3501 2.2275-3.41 5.471-4.5775 7.2077-1.1675 1.7368-3.5327 5.0443-5.2561 7.35-1.7233 2.3057-4.6203 5.9473-6.4378 8.0923s-4.306 4.9567-5.5301 6.2481l-2.2256 2.3481-1.7635-4.5981c-0.96991-2.529-3.215-8.5806-4.989-13.448-1.774-4.8675-4.3806-12.292-5.7923-16.5-1.4118-4.2075-3.5075-10.688-4.6572-14.4-1.1497-3.7125-2.9944-9.9225-4.0992-13.8s-2.8641-10.425-3.9094-14.55c-1.0454-4.125-2.6519-10.898-3.57-15.05-0.91815-4.1527-1.6694-7.6762-1.6694-7.83v-0.27953l5.325-0.1756 5.325-0.1756 4.8-0.62622 4.8-0.62622 5.25-1.0515c2.8875-0.57834 7.275-1.5818 9.75-2.2298 2.475-0.64804 7.47-2.1206 11.1-3.2724s9.705-3.1957 13.5-4.542 7.3846-2.6239 7.9768-2.839l1.0768-0.39107 1.1013 6.3447c0.60576 3.4896 2.2399 13.095 3.6315 21.345s2.8069 17.228 3.1452 19.95c0.33828 2.7225 0.88035 7.65 1.2047 10.95 0.3243 3.3 0.87039 9.4425 1.2135 13.65 0.34314 4.2075 0.68184 7.8188 0.75264 8.025l0.12876 0.375 0.83442-0.006 0.83442-0.006 2.0485-0.72288 2.0485-0.72291 2.5786-1.5958 2.5786-1.5958 2.5987-2.55 2.5987-2.55 1.2549-2.55 1.2549-2.55 0.49836-2.25 0.49833-2.25 0.0129-6.45 0.0129-6.45-1.281-8.55c-0.70452-4.7025-2.4907-15.772-3.9693-24.6-1.4786-8.8275-3.0008-17.765-3.3827-19.861l-0.69435-3.8106 0.87672-0.36315 0.87672-0.36314 3.7951 0.66764c2.0873 0.3672 6.1576 1.2142 9.0451 1.8822s8.1525 2.0224 11.7 3.0099c3.5475 0.98744 9.7575 2.803 13.8 4.0346s14.978 4.6542 24.3 7.6059c9.3225 2.9516 20.325 6.3975 24.45 7.6574s11.9 3.5527 17.278 5.095 13.68 3.8223 18.45 5.0667c4.7695 1.2444 12.114 3.0664 16.322 4.049 4.2075 0.98255 8.1436 1.8762 8.7469 1.986l1.0969 0.19955 0.17679 0.94688c0.0972 0.52079 0.31455 2.0269 0.48294 3.3469l0.30615 2.4-0.003 5.85-0.003 5.85-0.58389 3.9-0.58386 3.9-0.76671 2.9236c-0.42168 1.608-1.256 4.173-1.8541 5.7-0.59805 1.527-1.6989 3.9704-2.4464 5.4298-0.74742 1.4594-2.2095 3.9255-3.2491 5.4804-1.0396 1.5548-2.7032 3.822-3.6968 5.038-0.99369 1.2161-2.8102 3.2777-4.0366 4.5814s-3.6263 3.6618-5.3331 5.2403l-3.1033 2.8699-0.0288-3.0317-0.0288-3.0317-0.49656-1.95-0.49653-1.95-1.3312-2.7114-1.3312-2.7114-1.8325-1.9998-1.8325-1.9999-2.011-1.3322-2.011-1.3322-1.8-0.74316c-0.99-0.40872-2.5425-0.92916-3.45-1.1565l-1.65-0.41337-3.9 0.0117-3.9 0.0117-2.4 0.68277-2.4 0.6828-2.7 1.4042-2.7 1.4042-3 3.0014-3 3.0014-1.2583 2.25-1.2583 2.25-0.83349 2.4-0.83346 2.4-0.008 4.95-0.008 4.95 0.69483 2.0741c0.38214 1.1408 1.009 2.6932 1.393 3.45 0.38397 0.75672 1.3042 2.1985 2.045 3.2039l1.3468 1.828 1.5325 1.322c0.84288 0.72708 2.3746 1.8321 3.4039 2.4556l1.8713 1.1336 2.4063 0.77121 2.4063 0.77121 3.5216 0.19515 3.5216 0.19515-3.8216 4.0312-3.8216 4.0312-3.3 2.8252-3.3 2.8251-3.1229 2.0899-3.1229 2.0899-2.9556 1.4832c-1.6256 0.81576-3.9439 1.8758-5.1517 2.3556-1.2078 0.47979-3.5334 1.2367-5.168 1.682-1.6345 0.44532-4.526 1.0726-6.4254 1.3939l-3.4535 0.58428-6 0.10893zm91.875-125.58c-0.20625-0.015-3.21-0.67615-6.675-1.4692-3.465-0.79302-9.0675-2.1458-12.45-3.0062-3.3825-0.86036-9.1875-2.4343-12.9-3.4976s-10.26-3.1266-14.55-4.585c-4.29-1.4585-12.188-4.1602-17.55-6.004-5.3625-1.8437-13.192-4.4342-17.4-5.7567-4.2075-1.3225-11.632-3.545-16.5-4.9389-4.8675-1.3939-12.9-3.5352-17.85-4.7585s-10.181-2.4617-11.625-2.752c-1.4438-0.29033-2.6152-0.60141-2.6032-0.6913 0.012-0.0899 5.7832-3.0239 12.825-6.52s15.368-7.7318 18.503-9.4128c3.135-1.6809 8.13-4.4077 11.1-6.0595s7.83-4.4216 10.8-6.1551 7.4925-4.431 10.05-5.9944 8.1703-5.1788 12.473-8.0342l7.8228-5.1916 4.7772-3.5931c2.6275-1.9762 6.2622-4.8285 8.0772-6.3384s4.835-4.2571 6.7112-6.1049c1.8761-1.8478 4.1967-4.2647 5.1567-5.371 0.96006-1.1063 2.4426-3.0445 3.2946-4.307 0.85194-1.2625 1.9371-3.1249 2.4114-4.1385s1.1585-2.923 1.5205-4.243l0.65808-2.4 0.0207-5.25 0.0207-5.25-0.83385-2.367c-0.45864-1.3019-1.1926-2.9791-1.631-3.7272l-0.7971-1.3602-1.7749-1.8973-1.7749-1.8974-2.0757-1.3799-2.0757-1.3799-2.7834-1.1369-2.7834-1.1369-2.532-0.62759c-1.3927-0.34518-3.8821-0.86331-5.5321-1.1514l-3-0.52381-10.2-0.007-10.2-0.007-3.6 0.39029c-1.98 0.21466-6.435 0.79767-9.9 1.2956-3.465 0.49791-9.0675 1.4453-12.45 2.1053-3.3825 0.65998-9.0499 1.8696-12.594 2.6881-3.5443 0.81848-9.2818 2.2386-12.75 3.1558-3.4682 0.91719-9.3406 2.5431-13.05 3.6132-3.7092 1.0701-10.122 3.0093-14.25 4.3094-4.1283 1.3001-11.338 3.6571-16.021 5.2377-4.6835 1.5806-8.5516 2.8358-8.5957 2.7893-0.0442-0.0465-0.78141-3.122-1.6384-6.8345-0.85695-3.7125-3.8401-15.914-6.6292-27.114l-5.0712-20.364v-0.8029-0.80289l2.5911-3.5836c1.4251-1.971 4.109-5.4736 5.9643-7.7836s4.4136-5.415 5.6852-6.9 4.3589-4.9155 6.8608-7.6234l4.5487-4.9234 4.6703-4.3766c2.5687-2.4072 5.8087-5.3367 7.2-6.51 1.3913-1.1734 3.8797-3.1871 5.5297-4.475s4.89-3.588 7.2-5.1113 5.55-3.5118 7.2-4.4189c1.65-0.90707 4.4175-2.2536 6.15-2.9924 1.7325-0.73873 4.4851-1.7707 6.1168-2.2933l2.9668-0.95019 3.4832-0.61328 3.4832-0.61328 6.15-0.0201 6.15-0.0201 3.5682 0.51197 3.5682 0.51196 3.3822 0.87207 3.3822 0.87206 3.0996 1.2278c1.7048 0.67532 4.2459 1.8372 5.6469 2.582s3.6285 2.0782 4.95 2.963c1.3215 0.88487 3.5502 2.5226 4.9527 3.6393l2.55 2.0305 4.875 4.9286c2.6812 2.7108 4.875 5.0267 4.875 5.1466v0.21796l-2.9367 0.16182-2.9367 0.16182-2.3955 0.64638-2.3955 0.64638-2.0195 1.1104-2.0195 1.1104-1.5733 1.3308c-0.86526 0.73193-2.1443 2.0045-2.8423 2.8279l-1.2691 1.4971-1.2014 2.3092-1.2014 2.3093-0.6024 2.5128-0.6024 2.5128v3.15 3.15l0.59163 2.4678 0.59163 2.4678 0.87213 1.9234c0.47964 1.0579 1.4432 2.7643 2.1411 3.7921l1.269 1.8687 1.7303 1.7303 1.7303 1.7303 1.8687 1.269c1.0278 0.69795 2.7342 1.6614 3.7921 2.1411l1.9234 0.87211 2.4678 0.59163 2.4678 0.59164 3.0199 0.002 3.0199 0.002 1.7801-0.32502 1.7801-0.32501 1.95-0.76811 1.95-0.7681 2.0046-1.2876 2.0046-1.2876 1.7454-1.7931 1.7454-1.7932 1.0064-1.6675c0.5535-0.91712 1.3373-2.4867 1.7417-3.488l0.73533-1.8205 0.43329-2.2645 0.43326-2.2645v-2.0736-2.0736h0.26157c0.14388 0 2.4795 2.1938 5.1902 4.875l4.9286 4.875 2.0305 2.55c1.1168 1.4025 2.7654 3.6477 3.6637 4.9893 0.89826 1.3416 2.2989 3.7041 3.1124 5.25 0.81354 1.5459 1.9624 4.0624 2.553 5.5924 0.59061 1.5299 1.4684 4.3118 1.9505 6.1818l0.87666 3.4001 0.45054 3.4182c0.24777 1.88 0.53568 4.9032 0.63972 6.7182l0.18924 3.3-0.32955 4.35c-0.18123 2.3925-0.52968 5.5098-0.77433 6.9274s-0.90621 4.2526-1.4702 6.3l-1.0253 3.7226-1.3904 3.45c-0.76473 1.8975-2.2675 5.1318-3.3394 7.1874l-1.949 3.7374-2.2564 3.4313c-1.241 1.8872-3.2415 4.7279-4.4455 6.3126-1.204 1.5848-3.4713 4.3664-5.0383 6.1814l-2.8491 3.3-4.7647 4.6506-4.7647 4.6506-3.8891 3.2423c-2.139 1.7833-5.426 4.3966-7.3043 5.8075-1.8784 1.4108-5.2582 3.8116-7.5109 5.3351-2.2526 1.5234-5.4794 3.6142-7.1707 4.646l-3.075 1.8761 0.009 0.49588 0.009 0.49588 1.8505 1.05c1.0178 0.5775 3.8922 2.4083 6.3877 4.0685s6.215 4.2831 8.2656 5.8286c2.0506 1.5456 5.0109 3.8785 6.5784 5.1843s4.6158 3.9768 6.774 5.9357c2.1582 1.9588 5.2695 5.0176 6.914 6.7972s3.8083 4.1956 4.8083 5.3688 2.878 3.5324 4.1733 5.2428c1.2952 1.7103 3.3378 4.6468 4.539 6.5256l2.184 3.4159 2.1037 4.146c1.157 2.2803 2.1037 4.2902 2.1037 4.4663v0.3203l-0.375-0.0273zm-238.04-14.489-0.66139 0.17919-0.16023-0.70643c-0.0881-0.38853-0.42568-2.3264-0.75012-4.3064s-0.92717-5.895-1.3394-8.7-1.0891-8.07-1.5041-11.7c-0.41505-3.63-0.95422-9.435-1.1982-12.9-0.24395-3.465-0.4844-7.8391-0.53435-9.7202l-0.0908-3.4202 3.6-2.2441c1.98-1.2343 6.3-3.8235 9.6-5.7538s8.3742-4.8078 11.276-6.3944 8.6433-4.5689 12.759-6.6274c4.1155-2.0585 9.2603-4.557 11.433-5.5522 2.1727-0.99523 5.8674-2.6329 8.2105-3.6393l4.2601-1.8298 0.22551 0.24077c0.12405 0.13242 0.97356 3.8183 1.8878 8.1908 0.91422 4.3725 2.6834 13.124 3.9314 19.449 1.248 6.3242 3.356 17.376 4.6843 24.559s2.3741 13.09 2.3239 13.126-1.9347 0.8972-4.1877 1.9138-5.908 2.5855-8.1222 3.4865c-2.2142 0.90095-6.0408 2.3273-8.5036 3.1696l-4.4778 1.5315-4.65 1.1648c-2.5575 0.64065-6.4725 1.5059-8.7 1.9227-2.2275 0.41686-5.3325 0.95809-6.9 1.2027-1.5675 0.24465-5.955 0.86042-9.75 1.3684-3.795 0.50795-8.0475 1.1234-9.45 1.3676-1.4025 0.24422-2.8476 0.52467-3.2114 0.62324zm89.298-28.384c-0.089 0-0.46398-1.6538-0.83328-3.675-0.36933-2.0212-1.6177-8.67-2.7742-14.775-1.1564-6.105-3.5823-18.5-5.3908-27.544-1.8085-9.0444-3.2881-16.616-3.2881-16.825v-0.38028l0.975-0.31295c0.53625-0.17212 4.4241-1.4013 8.6397-2.7315s10.696-3.2976 14.4-4.3719c3.7044-1.0744 9.0303-2.5552 11.835-3.2907 2.805-0.73555 7.395-1.8824 10.2-2.5487 2.805-0.66622 7.8-1.7492 11.1-2.4066 3.3-0.65738 8.3625-1.5376 11.25-1.956 2.8875-0.41841 6.6675-0.90528 8.4-1.082 1.7325-0.17668 5.3775-0.4023 8.1-0.50138l4.95-0.18015 3.75 0.35991 3.75 0.35991 2.6043 0.56281 2.6043 0.56281 2.0457 0.80782 2.0457 0.80782 2.0224 1.3313 2.0223 1.3313 1.0445 1.2747 1.0445 1.2747 0.75006 1.6384 0.75006 1.6383 0.28257 1.9952 0.28257 1.9952-0.26874 2.1403c-0.14781 1.1771-0.47613 2.8386-0.7296 3.6921l-0.46086 1.5519-1.0156 1.5296c-0.55857 0.84126-1.776 2.3509-2.7055 3.3548-0.92943 1.0039-2.7989 2.761-4.1543 3.9046s-3.6794 2.9942-5.1644 4.1124-4.995 3.5461-7.8 5.3953-7.26 4.6529-9.9 6.2303c-2.64 1.5775-7.2975 4.2546-10.35 5.9493s-9.735 5.1933-14.85 7.7748-11.73 5.8176-14.7 7.1914-8.64 3.9047-12.6 5.6244c-3.96 1.7196-9.5629 4.2658-12.451 5.6582-2.888 1.3924-5.3237 2.5316-5.4127 2.5316zm-94.626-42.3c-0.088 0-0.15789-0.23625-0.15531-0.525 0.003-0.28875 0.27194-2.415 0.59858-4.725s0.80118-5.3475 1.0545-6.75c0.25336-1.4025 0.87733-4.44 1.3866-6.75s1.5228-6.207 2.2523-8.6599l1.3264-4.4599 1.7832-4.5401 1.7832-4.5401 1.8267-3.6 1.8267-3.6 2.4974-3.75 2.4974-3.75 2.3153-2.4836 2.3153-2.4836 1.712-1.3174c0.94161-0.72455 2.5811-1.7951 3.6433-2.3789l1.9313-1.0616 1.9427-0.4977 1.9427-0.4977 2.0002 0.14311 2.0002 0.14312 1.9717 0.92267 1.9717 0.92268 1.5192 1.4211 1.5192 1.4211 1.3295 1.9999c0.73124 1.0999 1.7335 2.9003 2.2273 4.0008 0.49376 1.1005 1.5675 4.0693 2.386 6.5974 0.81855 2.5281 2.2412 7.4381 3.1615 10.911 0.92028 3.4731 1.6732 6.5035 1.6732 6.7344v0.41972l-2.025 0.87056c-1.1138 0.47881-4.9751 2.2584-8.5807 3.9548-3.6056 1.6963-9.3431 4.5604-12.75 6.3646s-8.4893 4.5957-11.294 6.2032c-2.805 1.6076-7.395 4.346-10.2 6.0854s-6.4792 4.0834-8.165 5.2088-3.137 2.0462-3.225 2.0462z"/>
  </g>
 </g>
</svg>
